PathFileType	4	(x/y/z)	S05_PSF_T03
DataRate	CameraRate	NumFrames	NumMarkers	Units	OrigDataRate	OrigDataStartFrame	OrigNumFrames
240	240	4	50	mm	240	52	410
Frame#	Time	Sternum			R.Acromium			L.Acromium			Top.Head			R.ASIS			L.ASIS			R.PSIS			L.PSIS			R.Great.Tro			L.Great.Tro			R.Iliac.Crest			L.Iliac.Crest			V.Sacral			R.Thigh.Upper.Post			R.Thigh.Lower.Ant			R.Thigh.Lower.Post			R.Thigh.Upper.Ant			R.Knee.Lat			R.Knee.Med			R.Shank.Upper.Post			R.Shank.Lower.Ant			R.Shank.Lower.Post			R.Shank.Upper.Ant			R.Ankle.Lat			R.Ankle.Med			R.Heel.Upper			R.Heel.Med			R.Heel.Lat			R.Toe.Lat			R.Toe.Med			R.Toe.Tip			L.Thigh.Upper.Post			L.Thigh.Lower.Ant			L.Thigh.Lower.Post			L.Thigh.Upper.Ant			L.Knee.Lat			L.Shank.Upper.Post			L.Shank.Lower.Ant			L.Shank.Lower.Post			L.Shank.Upper.Ant			L.Ankle.Lat			L.Ankle.Med			L.Heel.Upper			L.Heel.Med			L.Heel.Lat			L.Toe.Lat			L.Toe.Med			L.Toe.Tip			Cervical.Spine			Back			
		X1	Y1	Z1	X2	Y2	Z2	X3	Y3	Z3	X4	Y4	Z4	X5	Y5	Z5	X6	Y6	Z6	X7	Y7	Z7	X8	Y8	Z8	X9	Y9	Z9	X10	Y10	Z10	X11	Y11	Z11	X12	Y12	Z12	X13	Y13	Z13	X14	Y14	Z14	X15	Y15	Z15	X16	Y16	Z16	X17	Y17	Z17	X18	Y18	Z18	X19	Y19	Z19	X20	Y20	Z20	X21	Y21	Z21	X22	Y22	Z22	X23	Y23	Z23	X24	Y24	Z24	X25	Y25	Z25	X26	Y26	Z26	X27	Y27	Z27	X28	Y28	Z28	X29	Y29	Z29	X30	Y30	Z30	X31	Y31	Z31	X32	Y32	Z32	X33	Y33	Z33	X34	Y34	Z34	X35	Y35	Z35	X36	Y36	Z36	X37	Y37	Z37	X38	Y38	Z38	X39	Y39	Z39	X40	Y40	Z40	X41	Y41	Z41	X42	Y42	Z42	X43	Y43	Z43	X44	Y44	Z44	X45	Y45	Z45	X46	Y46	Z46	X47	Y47	Z47	X48	Y48	Z48	X49	Y49	Z49	X50	Y50	Z50	

52	0.2125	-1163.5	1254	274.25	-1266	1517.9	418.33	-1280.1	1523.5	92.289	-1269.7	1822.8	235.83	-1242	995.46	410.42	NaN	NaN	NaN	NaN	NaN	NaN	NaN	NaN	NaN	-1334.2	911.42	460.33	-1275.5	929.01	74.781	-1336	1081.7	436.84	-1297.2	1082.2	102.05	-1437.1	978.73	261.18	-1258.7	698.26	481.15	-1188.3	627.51	445.31	-1253.6	606.99	468.43	-1193.7	716.14	457.94	-1259.9	512.6	459.29	-1231.8	489.98	327.64	-1478.6	422.47	427.47	-1496.6	334.64	425.4	-1538.7	379.47	405.99	-1440	379.18	446.84	-1594.6	287.89	400.46	-1554.7	290.74	318.85	-1658.8	319.37	329.09	-1672.8	294.93	298.07	-1686.1	299.54	362.29	-1625.3	148.86	425.27	-1577.4	122.77	315.56	NaN	NaN	NaN	-1222.8	694.74	88.737	-1129.7	640.91	120.53	-1194.6	605.48	108.7	-1150.4	727.62	100.94	-1162.6	520.64	119.81	-1211.1	316.21	122.59	-1139.4	263.55	132.23	-1209.1	244.7	142.06	-1146.3	332.63	117.4	-1173	109.31	157.07	-1141.1	130.56	242.66	-1228.2	65.27	213.27	-1216	42.074	245.64	-1226.9	37.787	185.69	-1045.7	39.995	127.53	-1020.9	57.29	244.71	-959	69.601	188.38	-1323.7	1559.2	260.34	-1433.3	1282.4	267.88
53	0.21667	-1158.2	1254.6	273.86	-1260.1	1518.7	417.89	-1274.3	1524.3	91.894	-1263.9	1823.6	235.37	-1237	996.41	409.8	NaN	NaN	NaN	NaN	NaN	NaN	NaN	NaN	NaN	-1328.2	912.27	460.13	-1271.1	929.74	74.388	-1330.5	1082.5	436.48	-1292.3	1083	101.65	-1432	979.52	261.17	-1249.4	699.71	480.82	-1178.6	629.9	444.57	-1243.5	608.53	468.07	-1184.9	718.56	456.85	-1248.4	514.13	458.77	-1219.8	492.44	326.94	-1466.7	423.41	426.86	-1484.7	335.64	424.98	-1527	380.29	405.59	-1428.1	380.33	446.31	-1582.5	288.53	400.04	-1542.8	291.65	318.2	-1647.1	319.36	328.76	-1661	294.74	297.77	-1674.2	299.35	361.98	-1611.9	149.38	424.91	-1563.9	123.66	315.15	NaN	NaN	NaN	-1219.6	695.18	88.385	-1126.8	640.84	120.01	-1191.8	605.78	108.36	-1147.1	727.66	100.42	-1160.4	520.65	119.51	-1210.2	316.49	122.82	-1138.8	263.44	132.04	-1208.4	244.94	142.26	-1145.3	332.53	117.2	-1172.8	109.43	157.12	-1140.8	130.58	242.66	-1228.2	65.315	213.31	-1215.9	42.103	245.66	-1226.9	37.884	185.69	-1045.7	39.92	127.49	-1020.9	57.17	244.73	-958.92	69.369	188.38	-1318	1560.1	259.92	-1427.9	1283.4	267.34
54	0.22083	-1152.9	1255.3	273.46	-1254.2	1519.4	417.47	-1268.6	1525.1	91.512	-1258	1824.4	234.94	-1231.8	997.38	409.16	NaN	NaN	NaN	NaN	NaN	NaN	NaN	NaN	NaN	-1322.1	913.15	459.95	-1266.8	930.47	74.019	-1325	1083.4	436.14	-1287.5	1083.8	101.27	-1426.9	980.36	261.19	-1240.2	701.22	480.47	-1169	632.39	443.81	-1233.4	610.16	467.68	-1176.2	721.04	455.81	-1237	515.74	458.21	-1208	494.83	326.25	-1454.9	424.19	426.22	-1472.9	336.46	424.55	-1515.3	380.89	405.17	-1416.1	381.33	445.73	-1570.2	288.86	399.61	-1530.7	292.3	317.53	-1635.4	318.97	328.43	-1649.1	294.15	297.46	-1662.3	298.74	361.65	-1598.1	149.56	424.52	-1550.1	124.29	314.7	NaN	NaN	NaN	-1216.5	695.61	88.042	-1123.9	640.76	119.49	-1189.2	606.07	108.03	-1143.8	727.68	99.893	-1158.3	520.67	119.21	-1209.3	316.77	123.02	-1138.2	263.34	131.84	-1207.8	245.18	142.42	-1144.4	332.43	116.99	-1172.7	109.55	157.17	-1140.6	130.6	242.64	-1228.2	65.363	213.34	-1215.9	42.139	245.67	-1226.8	37.982	185.69	-1045.7	39.842	127.44	-1020.8	57.072	244.73	-958.85	69.158	188.37	-1312.3	1561	259.52	-1422.5	1284.4	266.83
55	0.225	-1147.6	1256	273.05	-1248.4	1520.2	417.05	-1262.9	1525.9	91.14	-1252.1	1825.2	234.54	-1226.4	998.39	408.5	NaN	NaN	NaN	NaN	NaN	NaN	NaN	NaN	NaN	-1316.1	914.08	459.78	-1262.6	931.2	73.674	-1319.5	1084.3	435.8	-1282.7	1084.7	100.91	-1421.8	981.23	261.25	-1231	702.79	480.1	-1159.4	634.96	443.03	-1223.4	611.87	467.26	-1167.6	723.58	454.83	-1225.8	517.42	457.61	-1196.5	497.13	325.57	-1443.2	424.81	425.56	-1461	337.1	424.11	-1503.7	381.26	404.72	-1403.9	382.16	445.11	-1557.8	288.88	399.16	-1518.5	292.7	316.84	-1623.6	318.21	328.1	-1637.1	293.18	297.14	-1650.2	297.71	361.3	-1584	149.41	424.11	-1536	124.66	314.19	NaN	NaN	NaN	-1213.4	696.04	87.709	-1121.1	640.67	118.95	-1186.6	606.37	107.7	-1140.5	727.7	99.358	-1156.3	520.7	118.91	-1208.5	317.04	123.18	-1137.6	263.25	131.62	-1207.1	245.42	142.55	-1143.5	332.35	116.76	-1172.5	109.68	157.2	-1140.3	130.63	242.61	-1228.2	65.416	213.37	-1215.9	42.183	245.69	-1226.8	38.081	185.69	-1045.7	39.76	127.39	-1020.8	56.992	244.72	-958.78	68.965	188.34	-1306.7	1561.8	259.12	-1417.1	1285.4	266.33
